# xmcd
#
# Track frame offsets:
#       150
#       15501
#       34686
#       46125
#       60849
#       80268
#       96576
#       111069
#       131439
#       146885
#       160895
#
# Disc length: 2290 seconds
#
# Revision: 0
# Processed by: cddbd v1.5.2PL0 Copyright (c) Steve Scherf et al.
# Submitted via: WaveLab 4.01
#
DISCID=8508f00b
DTITLE=New Earth - Ripple Effect
DYEAR=2006
DGENRE=Boomer Rock
TTITLE0=Your Picture, My Magazine
TTITLE1=New Earth
TTITLE2=Down By Me
TTITLE3=The Queen
TTITLE4=Station
TTITLE5=Extraordinary
TTITLE6=It's You
TTITLE7=If You Want Me To
TTITLE8=My Fear
TTITLE9=Sinner
TTITLE10=Secret Messages
EXTD=
EXTT0=
EXTT1=
EXTT2=
EXTT3=
EXTT4=
EXTT5=
EXTT6=
EXTT7=
EXTT8=
EXTT9=
EXTT10=
PLAYORDER=
